<?xml version="1.0" encoding="UTF-8"?>
<svg width="585px" height="192px" viewBox="0 0 585 192" version="1.1" xmlns="http://www.w3.org/2000/svg" xmlns:xlink="http://www.w3.org/1999/xlink">
    <!-- Generator: Sketch 44.1 (41455) - http://www.bohemiancoding.com/sketch -->
    <title>Coin</title>
    <desc>Created with Sketch.</desc>
    <defs></defs>
    <g id="Page-1" stroke="none" stroke-width="1" fill="none" fill-rule="evenodd">
        <g id="Coin">
            <path d="M13.9387359,64.451017 L27.907266,49.6820937 C82.4692719,50.6175618 189.837109,110.567663 310.406076,103.496346 C430.975044,96.4250287 487.104753,64.451017 557.125428,51.323821 L570.508678,64.451017 C546.487268,117.35011 436.789071,148.831012 303.479195,148.831012 C170.169318,148.831012 49.5324538,125.435936 13.9387359,64.451017 Z" id="Path-2" fill="#FFFFFF"></path>
            <path d="M14.107472,64.5 C4.94822495,73.9509372 0,84.0328486 0,94.5 C0,148.347763 130.956711,192 292.5,192 C454.043289,192 585,148.347763 585,94.5 C585,84.0328486 580.051775,73.9509372 570.892528,64.5 C532.932464,103.66896 422.641835,132 292.5,132 C162.358165,132 52.0675363,103.66896 14.107472,64.5 Z" id="Combined-Shape" fill="#F8CC1C"></path>
            <path d="M292.022022,118.115721 C436.883763,118.115721 528.105858,86.8201851 554.317407,58 C580.528956,29.1798149 436.883763,0.19767157 292.022022,0.19767157 C147.16028,0.19767157 2.38237853,29.2670945 29.7266362,58 C57.0708939,86.7329055 147.16028,118.115721 292.022022,118.115721 Z" id="Oval" fill="#F8CC1C"></path>
        </g>
    </g>
</svg>