<svg width="200" height="200" viewBox="0 0 200 200" xmlns="http://www.w3.org/2000/svg">
  <title>
    Group
  </title>
  <g fill="none" fill-rule="evenodd">
    <g fill-rule="nonzero">
      <path d="M92 23c3 4 7 6 11 8-2 5-3 9-4 13h-5c-3 0-7-1-10-1-1-2-3-5-4-7 0-1-1-2-1-2 4-2 9-6 13-11zm0-23c-5 0-10 1-15 9-4 7-10 7-19 7-8 0-10 6-6 12 2 3 15 25 18 30 3 4 15 7 24 7h2c9 0 23-4 22-11-1-13 12-30 14-32 3-4 2-13-6-13-2 0-4 0-6 1s-5 2-8 2c-2 0-4-1-5-3-6-8-11-9-15-9z"/>
      <path d="M70 58c3 5 17 7 26 7s23-4 22-11c-1-13 12-30 14-32-4 2-7 5-11 4-2 2-7 14-17 14-7 0-8-10-13-10s-6 7-10 8c-9 2-16-7-21-13-2 0-6-3-8 4 2 2 15 24 18 29zM116 68c-7 3-15 5-20 5h-2c-2 0-11 0-19-3-43 13-75 57-75 88 0 37 45 42 100 42s100-5 100-42c0-33-36-80-84-90z"/>
    </g>
    <path d="M55.8 111.1c.4-.867 1.233-1.767 2.5-2.7 1.267-.933 2.733-1.783 4.4-2.55 1.667-.767 3.45-1.417 5.35-1.95 1.9-.533 3.683-.833 5.35-.9.533 0 1.083.1 1.65.3.567.2 1.117.3 1.65.3.533 0 1.067-.05 1.6-.15.533-.1 1-.15 1.4-.15 2.533.267 4.683 1.1 6.45 2.5 1.767 1.4 3.05 2.867 3.85 4.4.8 1.6 1.167 3.183 1.1 4.75-.067 1.567-.383 3.083-.95 4.55-.567 1.467-1.317 2.85-2.25 4.15-.933 1.3-1.9 2.483-2.9 3.55-.533.4-1.3.783-2.3 1.15-1 .367-2 .617-3 .75-.667.333-1.267.45-1.8.35-.533-.1-.667.083-.4.55 0 .133.117.217.35.25.233.033.417.117.55.25 1 .2 2 .367 3 .5s1.983.333 2.95.6c.967.267 1.9.633 2.8 1.1.9.467 1.783 1.133 2.65 2 1.267 1.267 2.267 2.567 3 3.9.733 1.333 1.1 2.633 1.1 3.9.333 1.8.2 3.817-.4 6.05-.6 2.233-1.467 4.117-2.6 5.65-1.4 1.667-3.133 2.933-5.2 3.8s-3.967 1.733-5.7 2.6c-1.4.6-2.867 1-4.4 1.2-1.533.2-3.05.3-4.55.3s-2.9-.067-4.2-.2c-1.3-.133-2.383-.2-3.25-.2-1.667 0-3.083-.2-4.25-.6-1.167-.4-2.25-.767-3.25-1.1-.467-.133-1-.383-1.6-.75-.6-.367-1.15-.783-1.65-1.25-.5-.467-.917-.967-1.25-1.5-.333-.533-.5-1.033-.5-1.5-.133-.533.1-.9.7-1.1.6-.2 1.1-.567 1.5-1.1.267-.6.567-1.167.9-1.7.333-.533.7-.967 1.1-1.3.4-.333.817-.5 1.25-.5.433 0 .85.233 1.25.7.533.733 1.533 1.683 3 2.85s3.15 2.183 5.05 3.05 3.85 1.383 5.85 1.55c2 .167 3.833-.45 5.5-1.85.867-.867 1.733-1.867 2.6-3s1.3-2.467 1.3-4c0-1.333-.2-2.7-.6-4.1-.4-1.4-.967-2.717-1.7-3.95s-1.633-2.317-2.7-3.25c-1.067-.933-2.267-1.6-3.6-2-.533-.333-1.283-.667-2.25-1-.967-.333-2.15-.667-3.55-1-.533-.067-1.017-.05-1.45.05-.433.1-.833.183-1.2.25s-.717.033-1.05-.1c-.333-.133-.667-.467-1-1-.2-.4-.4-.85-.6-1.35-.2-.5-.333-.967-.4-1.4-.067-.433-.05-.817.05-1.15.1-.333.317-.533.65-.6.867-.333 2-.5 3.4-.5s2.85-.117 4.35-.35c1.5-.233 2.983-.717 4.45-1.45s2.767-2 3.9-3.8c.533-.533.85-1.167.95-1.9.1-.733.15-1.567.15-2.5-.133-.6-.333-1.3-.6-2.1-.267-.8-.633-1.567-1.1-2.3-.467-.733-1.017-1.3-1.65-1.7-.633-.4-1.35-.5-2.15-.3-.733 0-1.3-.017-1.7-.05-.4-.033-.967-.117-1.7-.25-.733 0-1.383.067-1.95.2s-1.217.333-1.95.6c-.067.067-.3.35-.7.85-.4.5-.867 1.067-1.4 1.7-.533.633-1.133 1.267-1.8 1.9s-1.3 1.117-1.9 1.45c-1 .4-1.95.35-2.85-.15-.9-.5-1.35-1.65-1.35-3.45.067-.333.067-.6 0-.8-.067-.2-.15-.4-.25-.6-.1-.2-.167-.4-.2-.6-.033-.2.017-.467.15-.8zm61.1-7.3c1-.533 2.183-.867 3.55-1s2.8-.167 4.3-.1 2.983.183 4.45.35c1.467.167 2.767.25 3.9.25 1.533.267 3.033.75 4.5 1.45s2.567 1.683 3.3 2.95c.333.6.633 1.45.9 2.55.267 1.1.483 2.217.65 3.35.167 1.133.283 2.183.35 3.15.067.967.067 1.583 0 1.85 0 4-.217 7.95-.65 11.85-.433 3.9-1.267 7.6-2.5 11.1s-2.933 6.733-5.1 9.7c-2.167 2.967-4.983 5.517-8.45 7.65-1.333.8-2.833 1.433-4.5 1.9-1.667.467-3.383.767-5.15.9-1.767.133-3.517.1-5.25-.1s-3.333-.533-4.8-1c-.733-.133-1.317-.233-1.75-.3-.433-.067-1.05-.267-1.85-.6-1.267-.667-2.183-1.817-2.75-3.45-.567-1.633-.95-3.4-1.15-5.3-.2-1.9-.283-3.767-.25-5.6.033-1.833.017-3.35-.05-4.55 0-1.2.017-2.65.05-4.35.033-1.7.1-3.467.2-5.3.1-1.833.283-3.6.55-5.3.267-1.7.633-3.117 1.1-4.25 1.933-4.133 4.283-7.533 7.05-10.2 2.767-2.667 5.883-5.2 9.35-7.6zm-.5 9.8c-1.533.6-2.567 1.317-3.1 2.15-.533.833-.867 1.7-1 2.6-.133.9-.2 1.817-.2 2.75s-.233 1.867-.7 2.8c0 .4-.1.733-.3 1-.2.267-.3.667-.3 1.2v3.9c-.4.733-.733 1.4-1 2-.267.6-.4 1.3-.4 2.1 0 1.267.183 2.533.55 3.8.367 1.267.483 2.533.35 3.8v3.35c0 1.1.367 2.283 1.1 3.55.933 1.533 1.983 2.667 3.15 3.4 1.167.733 2.517 1.167 4.05 1.3.533.067 1.117-.017 1.75-.25.633-.233 1.25-.533 1.85-.9.6-.367 1.15-.783 1.65-1.25.5-.467.883-.867 1.15-1.2 1.8-1.8 3.333-4.2 4.6-7.2 1.267-3 2.1-6.15 2.5-9.45.4-3.3.283-6.567-.35-9.8-.633-3.233-1.95-5.983-3.95-8.25-.733-.867-1.617-1.383-2.65-1.55-1.033-.167-1.917-.417-2.65-.75-.867-.4-1.917-.483-3.15-.25-1.233.233-2.217.617-2.95 1.15z" fill="#FFF"/>
  </g>
</svg>