<?xml version="1.0" encoding="UTF-8"?>
<svg width="585px" height="141px" viewBox="0 0 585 141" version="1.1" xmlns="http://www.w3.org/2000/svg" xmlns:xlink="http://www.w3.org/1999/xlink">
    <!-- Generator: Sketch 44.1 (41455) - http://www.bohemiancoding.com/sketch -->
    <title>Coin</title>
    <desc>Created with Sketch.</desc>
    <defs></defs>
    <g id="Page-1" stroke="none" stroke-width="1" fill="none" fill-rule="evenodd">
        <g id="Coin">
            <path d="M26.3882215,0.288179061 L13.9387359,13.451017 C49.5324538,74.4359355 170.169318,97.831012 303.479195,97.831012 C436.789071,97.831012 546.487268,66.3501095 570.508678,13.451017 L557.414555,0.607416541 C557.267738,2.73127878 556.258174,4.86608334 554.317407,7 C528.105858,35.8201851 436.883763,67.1157207 292.022022,67.1157207 C147.16028,67.1157207 57.0708939,35.7329055 29.7266362,7 C27.595016,4.76012787 26.5093777,2.51821073 26.3882215,0.288179061 Z" id="Combined-Shape" fill="#FFFFFF"></path>
            <path d="M14.107472,13.5 C4.94822495,22.9509372 0,33.0328486 0,43.5 C0,97.3477631 130.956711,141 292.5,141 C454.043289,141 585,97.3477631 585,43.5 C585,33.0328486 580.051775,22.9509372 570.892528,13.5 C532.932464,52.6689603 422.641835,81 292.5,81 C162.358165,81 52.0675363,52.6689603 14.107472,13.5 Z" id="Combined-Shape" fill="#F8CC1C"></path>
        </g>
    </g>
</svg>