<svg width="585" height="192" viewBox="0 0 585 192" xmlns="http://www.w3.org/2000/svg">
  <g fill="#F8CC1C" fill-rule="evenodd">
    <path class='top' d="M292.022 118.116c144.862 0 236.084-31.296 262.295-60.116C580.53 29.18 436.884.198 292.022.198 147.16.198 2.382 29.268 29.727 58c27.344 28.733 117.433 60.116 262.295 60.116z"/>
    <path class='side' d="M14.107 64.5C4.947 73.95 0 84.033 0 94.5 0 148.348 130.957 192 292.5 192S585 148.348 585 94.5c0-10.467-4.948-20.55-14.107-30-37.96 39.17-148.25 67.5-278.393 67.5-130.142 0-240.432-28.33-278.393-67.5z"/>
  </g>
</svg>