<svg width="200" height="200" viewBox="0 0 200 200" xmlns="http://www.w3.org/2000/svg">
  <title>
    Group 2
  </title>
  <g fill="none" fill-rule="evenodd">
    <g fill-rule="nonzero">
      <path d="M92 23c3 4 7 6 11 8-2 5-3 9-4 13h-5c-3 0-7-1-10-1-1-2-3-5-4-7 0-1-1-2-1-2 4-2 9-6 13-11zM77 9c-4 7-10 7-19 7-8 0-10 6-6 12 2 3 15 18 18 23 3 4 15 7 24 7h2c9 0 23-4 22-11-1-13 12-23 14-25 3-4 2-13-6-13-2 0-4 0-6 1s-5 2-8 2c-2 0-4-1-5-3-6-8-11-9-15-9-5 0-10 1-15 9z"/>
      <path d="M70 51c3 5 17 7 26 7s23-4 22-11c-1-13 12-23 14-25-4 2-7 5-11 4-2 2-5 4-15 4H91c-5 0-4 3-8 4-9 2-18-3-23-9-2 0-6-3-8 4 2 2 15 17 18 22z"/>
      <path d="M116 60c-7 3-15 5-20 5h-2c-2 0-11 0-19-3-24.538-9.15-36.295 1.132-44.63 12.25C12.693 97.83 0 135.13 0 158c0 37 45 42 100 42s100-5 100-42c0-24.58-8.42-72.56-38.446-91.598C131.528 47.362 131.774 55.375 116 60z"/>
    </g>
    <path d="M34.125 107.033c1.267-.2 2.783-.65 4.55-1.35l5.55-2.2c1.933-.766 3.833-1.466 5.7-2.1 1.867-.633 3.533-.983 5-1.05.733 0 1.367.067 1.9.2.533.134 1.033.267 1.5.4.267.134.417.584.45 1.35.033.767.05 1.217.05 1.35.133 3.667.067 7.134-.2 10.4-.267 3.267-.667 6.567-1.2 9.9-.133 2.4-.233 4.834-.3 7.3-.067 2.467-.233 4.867-.5 7.2-.067.334-.117.917-.15 1.75-.033.834-.05 1.7-.05 2.6 0 .9.017 1.75.05 2.55.033.8.083 1.367.15 1.7-.067.867.017 1.584.25 2.15.233.567.6 1.067 1.1 1.5.5.434 1.083.834 1.75 1.2.667.367 1.4.784 2.2 1.25.8.534 1.733 1.05 2.8 1.55 1.067.5 1.9 1.017 2.5 1.55.933.934 1.267 1.784 1 2.55-.267.767-1.067 1.217-2.4 1.35-.733 0-1.483-.25-2.25-.75-.767-.5-1.517-.816-2.25-.95-.733-.066-1.333-.116-1.8-.15-.467-.033-.933-.05-1.4-.05-.467 0-.95-.016-1.45-.05-.5-.033-1.083-.116-1.75-.25-1.467-.266-3.167-.316-5.1-.15-1.933.167-3.85.384-5.75.65-1.9.267-3.683.434-5.35.5-1.667.067-2.933-.2-3.8-.8-.933-.466-1.517-.95-1.75-1.45-.233-.5-.233-.983 0-1.45.233-.466.65-.916 1.25-1.35.6-.433 1.3-.816 2.1-1.15 1.733-.8 4.067-1.566 7-2.3.533-.866.95-2.066 1.25-3.6.3-1.533.533-3.216.7-5.05.167-1.833.267-3.75.3-5.75.033-2 .05-3.933.05-5.8 0-1.866-.017-3.583-.05-5.15-.033-1.566-.05-2.85-.05-3.85.067-.933.1-1.7.1-2.3v-3.15c0-.5.067-1.116.2-1.85 0-.066-.017-.283-.05-.65-.033-.366-.083-.766-.15-1.2-.067-.433-.117-.833-.15-1.2-.033-.366-.083-.55-.15-.55-.733-.133-1.417-.083-2.05.15-.633.234-1.25.534-1.85.9-.6.367-1.233.7-1.9 1-.667.3-1.333.45-2 .45-1 0-1.867-.083-2.6-.25-.733-.166-1.267-.716-1.6-1.65-.267-.733-.367-1.5-.3-2.3.067-.8.367-1.333.9-1.6zm58.9-5.9c1-.533 2.183-.866 3.55-1 1.367-.133 2.8-.166 4.3-.1 1.5.067 2.983.184 4.45.35 1.467.167 2.767.25 3.9.25 1.533.267 3.033.75 4.5 1.45s2.567 1.684 3.3 2.95c.333.6.633 1.45.9 2.55.267 1.1.483 2.217.65 3.35.167 1.134.283 2.184.35 3.15.067.967.067 1.584 0 1.85 0 4-.217 7.95-.65 11.85-.433 3.9-1.267 7.6-2.5 11.1s-2.933 6.734-5.1 9.7c-2.167 2.967-4.983 5.517-8.45 7.65-1.333.8-2.833 1.434-4.5 1.9-1.667.467-3.383.767-5.15.9-1.767.134-3.517.1-5.25-.1s-3.333-.533-4.8-1c-.733-.133-1.317-.233-1.75-.3-.433-.066-1.05-.266-1.85-.6-1.267-.666-2.183-1.816-2.75-3.45-.567-1.633-.95-3.4-1.15-5.3-.2-1.9-.283-3.766-.25-5.6.033-1.833.017-3.35-.05-4.55 0-1.2.017-2.65.05-4.35.033-1.7.1-3.466.2-5.3.1-1.833.283-3.6.55-5.3.267-1.7.633-3.116 1.1-4.25 1.933-4.133 4.283-7.533 7.05-10.2 2.767-2.666 5.883-5.2 9.35-7.6zm-.5 9.8c-1.533.6-2.567 1.317-3.1 2.15-.533.834-.867 1.7-1 2.6-.133.9-.2 1.817-.2 2.75 0 .934-.233 1.867-.7 2.8 0 .4-.1.734-.3 1-.2.267-.3.667-.3 1.2v3.9c-.4.734-.733 1.4-1 2-.267.6-.4 1.3-.4 2.1 0 1.267.183 2.534.55 3.8.367 1.267.483 2.534.35 3.8v3.35c0 1.1.367 2.284 1.1 3.55.933 1.534 1.983 2.667 3.15 3.4 1.167.734 2.517 1.167 4.05 1.3.533.067 1.117-.016 1.75-.25.633-.233 1.25-.533 1.85-.9.6-.366 1.15-.783 1.65-1.25.5-.466.883-.866 1.15-1.2 1.8-1.8 3.333-4.2 4.6-7.2 1.267-3 2.1-6.15 2.5-9.45.4-3.3.283-6.566-.35-9.8-.633-3.233-1.95-5.983-3.95-8.25-.733-.866-1.617-1.383-2.65-1.55-1.033-.166-1.917-.416-2.65-.75-.867-.4-1.917-.483-3.15-.25-1.233.234-2.217.617-2.95 1.15zm49.4-9.8c1-.533 2.183-.866 3.55-1 1.367-.133 2.8-.166 4.3-.1 1.5.067 2.983.184 4.45.35 1.467.167 2.767.25 3.9.25 1.533.267 3.033.75 4.5 1.45s2.567 1.684 3.3 2.95c.333.6.633 1.45.9 2.55.267 1.1.483 2.217.65 3.35.167 1.134.283 2.184.35 3.15.067.967.067 1.584 0 1.85 0 4-.217 7.95-.65 11.85-.433 3.9-1.267 7.6-2.5 11.1s-2.933 6.734-5.1 9.7c-2.167 2.967-4.983 5.517-8.45 7.65-1.333.8-2.833 1.434-4.5 1.9-1.667.467-3.383.767-5.15.9-1.767.134-3.517.1-5.25-.1s-3.333-.533-4.8-1c-.733-.133-1.317-.233-1.75-.3-.433-.066-1.05-.266-1.85-.6-1.267-.666-2.183-1.816-2.75-3.45-.567-1.633-.95-3.4-1.15-5.3-.2-1.9-.283-3.766-.25-5.6.033-1.833.017-3.35-.05-4.55 0-1.2.017-2.65.05-4.35.033-1.7.1-3.466.2-5.3.1-1.833.283-3.6.55-5.3.267-1.7.633-3.116 1.1-4.25 1.933-4.133 4.283-7.533 7.05-10.2 2.767-2.666 5.883-5.2 9.35-7.6zm-.5 9.8c-1.533.6-2.567 1.317-3.1 2.15-.533.834-.867 1.7-1 2.6-.133.9-.2 1.817-.2 2.75 0 .934-.233 1.867-.7 2.8 0 .4-.1.734-.3 1-.2.267-.3.667-.3 1.2v3.9c-.4.734-.733 1.4-1 2-.267.6-.4 1.3-.4 2.1 0 1.267.183 2.534.55 3.8.367 1.267.483 2.534.35 3.8v3.35c0 1.1.367 2.284 1.1 3.55.933 1.534 1.983 2.667 3.15 3.4 1.167.734 2.517 1.167 4.05 1.3.533.067 1.117-.016 1.75-.25.633-.233 1.25-.533 1.85-.9.6-.366 1.15-.783 1.65-1.25.5-.466.883-.866 1.15-1.2 1.8-1.8 3.333-4.2 4.6-7.2 1.267-3 2.1-6.15 2.5-9.45.4-3.3.283-6.566-.35-9.8-.633-3.233-1.95-5.983-3.95-8.25-.733-.866-1.617-1.383-2.65-1.55-1.033-.166-1.917-.416-2.65-.75-.867-.4-1.917-.483-3.15-.25-1.233.234-2.217.617-2.95 1.15z" fill="#FFF"/>
  </g>
</svg>