<?xml version="1.0" ?><svg viewBox="0 0 64 64" xmlns="http://www.w3.org/2000/svg"><path d="M16.726 64c-1.2 0-2.02-.737-2.815-1.45-.538-.486-1.124-1.213-1.666-1.912l-.48.236c-.965.475-1.324.65-1.562.742-.322.124-.662.187-1.01.187-.96 0-1.864-.476-2.416-1.273-.552-.796-.673-1.787-.332-2.718.154-.42.413-.85.895-1.63.113-.186.273-.446.422-.696-.82-1.346-1.97-3.51-1.78-4.773.267-1.796 2.066-3.137 3.496-3.137.07 0 .167.004.236.01.352.033.677.134 1.226.35-.184-.195-.315-.39-.406-.555-.88-1.594-.65-7.728.72-10.917.916-2.134 2.648-4.393 4.42-6.135-.682-.507-1.275-1.212-1.546-2.12-.083-.277-.16-.662-.15-1.118-.315-.023-1.175-.094-1.21-.097-1.916 3.22-2.427 3.895-3.534 4.15-.2.048-.41.07-.616.07-1.6 0-2.987-1.394-3.155-3.174-.034-.365-.043-1-.056-2.01l-.005-.38c-2.79-.846-3.838-1.322-4.23-2.61-.26-.85-.32-2.49.575-3.542.228-.268.446-.438 1.698-1.38.375-.282.917-.69 1.303-.99l.156-.874c.364-2.034.43-2.337.59-2.7.488-1.105 1.638-1.878 2.798-1.878.085 0 .218.007.302.017 1.085.12 1.658.765 3.528 2.89.272-.086.525-.165.763-.235-.287-.188-.55-.407-.782-.654-.593-.63-1.28-1.74-1.19-3.453.12-2.29 2.96-4.135 5.227-4.135.91 0 1.756.27 2.45.782 1.213.896 1.823 2.388 1.633 3.993-.067.56-.223 1.104-.45 1.602.47-.058.915-.085 1.29-.085.612 0 1.22.05 1.818.152.228-1.2 1.44-2.23 2.66-3.173-.332-1.725-.815-4.417-.73-5.022.172-1.2 1.32-2.495 2.874-2.495.507 0 1.006.143 1.444.415.12.074.44.29.853.57.304.205.862.586 1.386.932.292-.292.6-.602.854-.86C34.723.39 35.108 0 36.22 0c.96 0 1.737.314 2.308.935.398.433.855 1.202.763 2.4-.013.19-.04.51-.077.896-.046.518-.133 1.487-.185 2.214.87.696 1.544 1.246 2.064 1.706.25-.785.745-1.54 1.462-2.207.754-.7 1.73-1.086 2.747-1.086 1.665 0 3.172 1.006 3.84 2.562.15.344.252.702.31 1.063.252-.032.46-.032.585-.032.375 0 .835.044 1.287.09l.276.03c.225-.255.493-.573.684-.8.9-1.07 1.358-1.596 1.93-1.92.593-.336 1.185-.506 1.76-.506 1.356 0 2.46.916 2.813 2.335.1.4.155.85.21 1.327 1.88.387 2.94.65 3.57 1.645.91 1.44.347 3.468-1.28 4.615-.15.13-.53.615-.826 1.03l.027.17c.522 3.144.643 4.43-.18 5.462-.588.74-1.47 1.167-2.414 1.167-1.016 0-1.976-.497-2.507-1.297-.224-.336-1.1-1.583-1.81-2.548-.797.434-1.73.963-2.18 1.234 1.738.306 3.245 1.13 4.34 2.396 1.06 1.224 2.066 2.516 2.212 3.892.084-.005.17-.008.254-.008 1.462 0 2.996.812 3.91 2.07.86 1.184 1.106 2.654.67 4.032-.6 1.908-2.237 3.094-4.27 3.094-.383 0-.77-.043-1.148-.123.282.58.393 1.312.517 2.135.032.202.073.475.113.72 3.997 2.75 4.12 3.533 4.238 4.29.144.91-.014 2.618-2.677 3.823-.215.097-.562.236-.947.386l-.617.244-.088.6c-.567 3.856-.684 4.66-1.71 5.346-.443.298-.982.455-1.556.455-.656 0-1.953-.25-2.647-1.18-.15-.203-.208-.32-.526-.972-.423-.865-.767-1.55-1.03-2.045l-.694.124c-1.943.35-2.785.492-3.304.492-.398 0-.88-.118-1.226-.316-1.12-.644-2.176-2.63-1.284-4.277.19-.35.425-.624 1.538-1.866.22-.246.526-.587.814-.914-.24-.372-.498-.77-.712-1.097-1.774-2.728-1.92-2.95-1.662-3.99.5-2.01 3.186-2.166 3.997-2.166.416 0 .836.035 1.25.105.76.126 1.378.302 1.84.456 1.636-.997 2.847-1.59 3.932-1.652-.28-.31-.504-.677-.668-1.085-.084.132-.178.258-.284.376-.585.658-1.432 1.02-2.384 1.02-1.095 0-2.52-.51-3.232-1.645-.078-.108-.562-.617-1.14-.617-.16 0-.328.035-.515.108-1.244.485-2.235 1.326-2.89 1.883-.33.28-.618.523-.928.712.06.202.096.418.105.65.062 1.435-.92 2.478-3.012 4.158.654 2.957.976 4.772-.59 5.824-.377.252-.917.41-1.37.41-.965 0-2.01-.5-5.106-2.22-.234-.128-.502-.277-.75-.414-.303.188-.645.406-.934.59-2.525 1.61-3.424 2.13-4.4 2.13-.398 0-.856-.12-1.202-.318-.492-.282-.854-.67-1.106-1.106-.448.137-.927.21-1.424.21-.12 0-.24-.004-.366-.012-1.82-.122-3.246-1.036-3.917-2.508-.666-1.463-.456-3.27.535-4.6.88-1.18 2.263-1.858 3.794-1.858.256 0 .51.02.76.057-.545-1.17-.767-2.204-.453-3.177.12-.372.296-.683.512-.94-1.02.367-2.67 1.168-3.97 2.782-2.29 2.845-2.855 5.952-2.927 8.056-.044 1.303-.038 2.032-.034 2.466 0 .203.002.398-.007.59.043.017.086.036.128.057 1.494.718 1.57 2.298 1.677 4.485l.007.152c2.793 1.55 3.564 2.09 4.015 2.792.85 1.325.862 3.23-1.032 4.5-.506.34-1.205.582-2.243.89.02 2.292-.04 3.376-.877 4.22-.543.54-1.242.838-1.972.838z" fill="#FFF"/><path d="M18.842 16.808c.662-.16 3.312-1.11 6.97 1.397 3.66 2.507 3.817 5.745 3.975 6.062.158.317 1.356.38 1.514.032.16-.35-.094-2.16-.66-3.43-.57-1.27-2.745-4.062-6.31-5.522-3.563-1.46-6.64-.012-6.75.16-.347.538.6 1.46 1.262 1.3zm14.036 3.62c-.284.094-.33 3.503-.158 3.776.22.35.662.254.883.127.22-.126-.032-3.776-.063-3.935s-.378-.064-.662.032zM18.21 33.502c2.556-3.174 6.152-3.872 6.467-3.904.315-.033-.09-.953-.442-.953-.473 0-2.113.063-4.132 1.11-2.02 1.048-5.457 4.603-6.75 7.62-1.293 3.014-1.135 8.315-.82 8.886.315.57 2.02.222 2.145-.032.126-.253 0-.54.095-3.3s.883-6.253 3.438-9.427zm16.056-8.506c.095.19.852.54 1.104.508.252-.032.505-.952 1.01-2.285.504-1.333 1.86-2.857 4.162-5.364 2.303-2.507 7.318-3.3 7.444-3.428s.315-.89.032-1.016c-.284-.127-5.267.762-8.39 3.364-3.123 2.603-5.564 7.815-5.362 8.22zm5.74 4.666c.158-.095 1.325-1.555 3.5-3.46 2.177-1.904 5.08-2.634 7.666-1.81 2.586.826 3.28 3.238 3.47 3.46.19.223.82-.03.978-.443.158-.413.095-1.047-1.61-3.015-1.702-1.968-4.73-2.254-7.947-.92-3.217 1.333-6.895 5.397-6.908 5.49-.064.476.693.793.85.698zm9.936-10.982c.536-.348 4.006-2.316 4.258-2.284.252.032 2.902 3.84 3.09 4.126.19.286.853.444 1.23-.032.38-.476-.504-4.54-.44-4.73.062-.19 1.26-1.935 1.892-2.38.63-.443.883-1.142.662-1.49-.22-.35-3.217-.794-3.533-.953-.314-.16-.346-1.937-.535-2.7-.19-.76-.725-.666-1.23-.38-.505.286-2.27 2.73-2.807 2.984-.536.255-2.77-.35-3.123.064-.725.857 1.577 3.27 1.61 3.65.03.38-1.893 2.952-2.146 3.396-.253.445.535 1.08 1.072.73zm1.01-6.633c.125-.032 2.08-.095 2.08-.095s2.556-2.285 2.65-2.285c.096 0 .096 2.254.316 2.35.22.094 2.65.507 2.68.666.033.16-1.89 2.507-1.923 2.634s-.032 1.587-.19 1.587-1.702-1.968-1.923-1.968c-.22 0-2.713 1.365-2.933 1.238-.222-.127 1.103-1.714.914-2.03-.19-.32-1.673-2.097-1.673-2.097zm-5.52-.952c1.576-.16 2.112-1.587 1.608-2.76-.505-1.175-1.988-1.578-2.933-.7-2.05 1.905-.253 3.62 1.324 3.46zm-.064-2.698c.536.038 1.01 1.016.662 1.46-.347.444-1.23.38-1.64-.063s.095-1.46.978-1.397zM43.98 20.204c.19-.222-.315-.984-.63-1.174-.316-.19-2.24.54-3.69 2.158-1.452 1.62-2.965 4.195-2.903 4.57.032.19 1.23.668 1.356.668.126 0 .883-1.143 1.987-2.888 1.105-1.747 3.69-3.11 3.88-3.334zm-14.383-6.792s2.68 3.81 2.84 4.03c.157.223 1.387.318 1.702.19.314-.126 2.144-4.823 2.396-4.95.252-.127 3.123-.73 3.406-.762.284-.032.536-.698.536-1.08 0-.38-3.627-3.173-3.753-3.3-.125-.127.222-3.555.285-4.38.063-.825-.473-.857-.79-.857S31.93 6.62 31.65 6.62s-3.312-2.127-3.722-2.38c-.41-.254-.82.222-.852.444-.032.222.946 5.49.978 5.618.032.127-3.163 2.24-2.87 2.73.284.475 4.415.38 4.415.38zm-.03-3.08c-.096-.22-1.073-3.522-.916-3.744 0 0 2.84 1.714 3.218 1.746.378.032 3.627-3.555 3.785-3.46.158.095-.315 3.015-.032 3.396.285.38 2.587 2.35 2.493 2.507-.095.16-2.523.635-2.713.89-.19.253-1.735 4.474-1.956 4.443-.22-.032-2.46-3.777-2.84-3.904s-3.027-.095-3.027-.095 2.084-1.554 1.99-1.777zm-1.105 17.84c.095-.287-.442-1.46-1.892-3.334-1.45-1.873-4.124-3.526-4.7-3.333-.473.16-.662.92-.473 1.11.19.19 2.113.953 3.564 2.223 1.452 1.27 2.398 3.142 2.65 3.523.253.382.757.097.852-.19zm7.854 5.585c-.158-.127-1.798-5.46-2.366-5.49-.568-.033-3.722 4.982-3.753 5.077 0 0-4.227-.603-4.573.476-.347 1.08 2.334 4.666 2.334 4.888 0 .222-1.482 3.714-1.577 4.094-.094.38-.062 1.047.38 1.3.44.255 4.95-3.014 5.36-2.983.41.03 5.52 3.205 5.994 2.887.473-.317-.725-4.698-.662-4.824.063-.127 3.28-2.412 3.25-3.142-.034-.727-4.23-2.156-4.386-2.283zm-.032 4.825c-.032.38.757 3.745.442 3.745s-4.195-2.793-4.416-2.634c-.22.16-4.07 2.38-4.258 2.254-.19-.127 1.577-3.333 1.388-3.618-.19-.287-2.933-3.492-2.68-3.65.337-.214 3.942.19 4.32-.065.378-.254 2.397-3.81 2.744-3.682.347.127 1.072 3.428 1.325 3.618.25.19 3.784 1.493 3.847 1.65.063.16-2.68 2-2.713 2.382zm21.322-9.395c-1.577.698-1.735 3.27-.852 3.936.883.667 3.217 1.047 3.848-.952.63-2-1.717-3.55-2.996-2.983zm.032 3.08c-.662-.826 0-1.715.6-1.905.51-.162 1.23.794 1.292 1.27.063.475-1.23 1.46-1.892.634zm-1.61 7.87c-.283-.19-.51-3.203-.724-3.27-.915-.285-3.848 1.81-4.037 1.842-.19.03-.978-.445-2.492-.7-1.514-.253-2.618.223-2.65.35-.03.127 2.903 4.444 2.934 4.698.03.254-2.934 3.364-3.124 3.714-.19.35.19 1.047.41 1.174s4.794-.825 5.173-.793c.377.032 2.207 4 2.302 4.126.095.126.82.38 1.104.19s.883-5.302 1.01-5.556c.125-.254 2.05-.92 2.68-1.206.63-.286 1.45-.762 1.356-1.365-.095-.603-3.66-3.016-3.943-3.206zm-1.545 5.27c0 .158-.158 3.205-.442 3.205s-1.734-2.952-1.923-2.952c-.19 0-3.627.667-3.816.476-.188-.19 2.46-2.92 2.304-3.142-.158-.222-2.586-3.428-2.492-3.65.075-.175 3.217.984 3.5.89.285-.096 2.62-1.715 2.87-1.588s.285 2.127.506 2.35c.22.22 3.028 2.062 2.996 2.316s-3.5 1.935-3.5 2.094zM50.29 31.98c.377.603 2.302 1.047 2.144-.38s-2.27-3.048-5.614-2.89c-3.343.16-6.8 3.74-6.876 4-.252.857 1.2.793 1.64.667s1.924-1.904 4.29-2.825c2.364-.92 4.036.825 4.415 1.428zm-29.997-4.952c-.252-1.777-2.7-2.073-3.533-1.047-1.262 1.556.158 2.635 1.167 2.953 1.01.317 2.618-.127 2.366-1.905zm-2.68-.19c.296-.365 1.134-.413 1.418 0 .285.413-.094 1.143-.724 1.016s-.978-.667-.694-1.016zm3.563 12.633c-.852 1.144-.662 3.27 1.703 3.43 2.365.158 2.964-2.318 2.175-3.46-.788-1.144-2.9-1.28-3.88.03zM23.1 41.79c-1.167-.064-1.546-1.08-.505-1.746.59-.377 1.104-.127 1.388.286s.284 1.523-.883 1.46zM11.524 24.616c.095-.063 2.713.222 3.5.222s1.357-.35 1.357-.793-2.522-2.825-2.648-3.047c-.126-.222 2.05-4.54 1.577-4.76-.474-.223-3.754.983-3.88.983-.127 0-2.742-3.197-3.092-3.236-.284-.032-.63.222-.757.508-.125.286-.66 3.65-.756 3.872-.095.222-3.154 2.412-3.343 2.634-.188.222-.25.952-.125 1.365.126.413 4.163 1.492 4.258 1.555.095.064.063 3.237.126 3.904.062.667.567 1.174.977 1.08.41-.096 2.713-4.222 2.807-4.286zM4.87 21.41c-.14-.28 2.995-1.935 2.995-2.03 0-.095.6-3.015.82-3.015.22 0 1.987 2.19 2.208 2.222.22.032 2.24-.603 2.46-.476s-1.42 2.858-1.325 3.016c.095.16 2.208 2.063 2.05 2.222-.158.16-3.154-.16-3.28-.095-.126.063-1.546 2.984-1.766 2.92-.22-.064-.284-2.92-.442-3.142-.157-.223-3.658-1.493-3.72-1.62zm11.764-8.728c1.135-.476 2.02-2.888.6-3.936-1.42-1.047-3.984.597-4.038 1.62-.126 2.38 2.303 2.792 3.438 2.316zm-1.64-3.08c.516-.24 1.798-.22 1.798.985 0 1.206-.82 1.333-1.735.984-.915-.348-.473-1.776-.063-1.967zM16.697 52.2c-.22-.16-.092-3.785-.536-4-.724-.348-3.28 2.762-3.69 2.762s-2.617-1.047-2.964-1.08c-.347-.03-1.167.54-1.262 1.175-.095.635 1.83 3.872 2.082 4.19.252.317-1.514 2.76-1.735 3.364-.22.603.38 1.015.79.857.41-.16 3.312-1.65 3.5-1.65.19 0 1.673 2.22 2.556 3.014.883.794 1.262 1.08 1.64.7.38-.382.095-4.127.252-4.286.158-.16 2.65-.73 3.217-1.11.568-.382.725-.794.378-1.334-.346-.54-4.005-2.443-4.226-2.602zm-.63 3.84c-.127.223-.064 3.27-.222 3.27s-1.86-2.698-2.145-2.698c-.284 0-2.586.603-2.68.54-.096-.064 1.008-1.968.882-2.158-.126-.19-2.145-3.396-2.176-3.682-.038-.34 2.87 1.46 3.28 1.206.41-.254 2.02-2.127 2.27-2s-.125 2.317.316 2.666c.442.35 3.564 2.03 3.564 2.127 0 .094-2.963.507-3.09.73zM8.4 19.73c-.126-.032-2.113 1.238-2.113 1.238-.19.222.378.508.693.57.315.064 1.514-.73 1.672-.92.157-.19-.127-.856-.253-.888zm25.296-6.157c.252-.412-1.4-2.062-1.892-2.062-.19 0-.568.317-.6.54-.03.222 1.452 2.222 1.578 2.317.125.094.662-.382.914-.794zm16.244 27.202c.063.19.725 1.428 1.01 1.555.283.127.535-.064.567-.254.03-.19-.916-1.397-.916-1.397s-.692.006-.662.096zM32.058 34.36c-.315 0-.694.952-.883 1.08-.19.126-1.605-.247-1.735-.064-.158.222-.158.825-.095.984.063.16 1.798.762 2.43.762.63 0 1.103-2.35 1.103-2.54 0-.19-.505-.222-.82-.222z"/></svg>