<svg width="404" height="568" viewBox="0 0 404 568" xmlns="http://www.w3.org/2000/svg">
  <g fill="none" fill-rule="evenodd">
    <path d="M0 0h404v568H0z"/>
    <path d="M65.86 118.504l1.468-24.26-19.785 13.283-6.502-11.325 21.464-10.487L41.04 75.088l6.503-11.116 19.785 13.214-1.468-24.33h13.143l-1.818 24.33L97.39 63.972l6.572 11.116L82.43 85.715l21.532 10.487-6.572 11.325-20.205-13.283 1.818 24.26H65.86zm85.92 0l1.47-24.26-19.786 13.283-6.5-11.325 21.46-10.487-21.46-10.627 6.5-11.116 19.785 13.214-1.47-24.33h13.145l-1.818 24.33 20.204-13.214 6.573 11.116-21.533 10.627 21.533 10.487-6.572 11.325-20.203-13.283 1.818 24.26H151.78zm85.923 0l1.468-24.26-19.784 13.283-6.502-11.325 21.463-10.487-21.463-10.627 6.502-11.116 19.785 13.214-1.467-24.33h13.143l-1.818 24.33 20.205-13.214 6.572 11.116-21.533 10.627 21.533 10.487-6.572 11.325-20.205-13.283 1.818 24.26h-13.143zm85.92 0l1.47-24.26-19.786 13.283-6.5-11.325 21.462-10.487-21.464-10.627 6.5-11.116 19.786 13.214-1.468-24.33h13.144l-1.818 24.33 20.205-13.214 6.57 11.116-21.532 10.627 21.533 10.487-6.57 11.325-20.206-13.283 1.818 24.26h-13.144zM65.86 217.628l1.468-24.26-19.785 13.284-6.502-11.326 21.464-10.487L41.04 174.21l6.503-11.115 19.785 13.213-1.468-24.33h13.143l-1.818 24.33 20.205-13.213 6.572 11.115L82.43 184.84l21.532 10.486-6.572 11.326-20.205-13.284 1.818 24.26H65.86zm257.764 0l1.468-24.26-19.785 13.284-6.5-11.326 21.462-10.487-21.464-10.628 6.5-11.115 19.786 13.213-1.468-24.33h13.144l-1.818 24.33 20.205-13.213 6.57 11.115-21.532 10.627 21.533 10.486-6.57 11.326-20.206-13.284 1.818 24.26h-13.144zM65.86 316.752l1.468-24.26-19.785 13.284-6.502-11.326 21.464-10.487-21.463-10.626 6.503-11.116 19.785 13.214-1.468-24.33h13.143l-1.818 24.33L97.39 262.22l6.572 11.117-21.533 10.626 21.532 10.487-6.572 11.326-20.205-13.284 1.818 24.26H65.86zm257.764 0l1.468-24.26-19.785 13.284-6.5-11.326 21.462-10.487-21.464-10.626 6.5-11.116 19.786 13.214-1.468-24.33h13.144l-1.818 24.33 20.205-13.213 6.57 11.117-21.532 10.626 21.533 10.487-6.57 11.326-20.206-13.284 1.818 24.26h-13.144zM65.86 415.876l1.468-24.26L47.543 404.9l-6.502-11.326 21.464-10.487L41.04 372.46l6.503-11.115 19.785 13.213-1.468-24.33h13.143l-1.818 24.33 20.205-13.213 6.572 11.116-21.533 10.627 21.532 10.487L97.39 404.9l-20.205-13.283 1.818 24.26H65.86zm257.764 0l1.468-24.26-19.785 13.284-6.5-11.326 21.462-10.487-21.464-10.626 6.5-11.115 19.786 13.213-1.468-24.33h13.144l-1.818 24.33 20.205-13.213 6.57 11.116-21.532 10.627 21.533 10.487-6.57 11.326-20.206-13.283 1.818 24.26h-13.144zM65.86 515l1.468-24.26-19.785 13.284-6.502-11.326 21.464-10.487-21.463-10.625 6.503-11.116 19.785 13.212-1.468-24.33h13.143l-1.818 24.33L97.39 460.47l6.572 11.115L82.43 482.21 103.96 492.7l-6.572 11.326-20.205-13.283L79.003 515H65.86zm85.92 0l1.47-24.26-19.786 13.284-6.5-11.326 21.46-10.487-21.46-10.625 6.5-11.116 19.785 13.212-1.47-24.33h13.145l-1.818 24.33 20.204-13.213 6.573 11.115-21.533 10.626 21.533 10.488-6.572 11.326-20.203-13.283 1.818 24.26H151.78zm85.923 0l1.468-24.26-19.784 13.284-6.502-11.326 21.463-10.487-21.463-10.625 6.502-11.116 19.785 13.212-1.467-24.33h13.143l-1.818 24.33 20.205-13.213 6.572 11.115-21.533 10.626 21.533 10.488-6.572 11.326-20.205-13.283 1.818 24.26h-13.143zm85.92 0l1.47-24.26-19.786 13.284-6.5-11.326 21.462-10.487-21.464-10.625 6.5-11.116 19.786 13.212-1.468-24.33h13.144l-1.818 24.33 20.205-13.213 6.57 11.115-21.532 10.626 21.533 10.488-6.57 11.326-20.206-13.283 1.818 24.26h-13.144zM188.243 349.147l2.92-48.28-39.374 26.436-12.94-22.54 42.714-20.87-42.714-21.148 12.94-22.123 39.374 26.297-2.92-48.42H214.4l-3.618 48.42 40.21-26.298 13.08 22.123-42.855 21.148 42.854 20.87-13.078 22.54-40.21-26.435 3.618 48.28" fill="#4C5662"/>
  </g>
</svg>