<?xml version="1.0" standalone="no"?>
<!DOCTYPE svg PUBLIC "-//W3C//DTD SVG 20010904//EN"
 "http://www.w3.org/TR/2001/REC-SVG-20010904/DTD/svg10.dtd">
<svg version="1.0" xmlns="http://www.w3.org/2000/svg"
 width="1136.000000pt" height="1136.000000pt" viewBox="0 0 1136.000000 1136.000000"
 preserveAspectRatio="xMidYMid meet">
<metadata>
Created by potrace 1.11, written by Peter Selinger 2001-2013
</metadata>
<g transform="translate(0.000000,1136.000000) scale(0.100000,-0.100000)"
fill="#000000" stroke="none">
<path d="M2972 10299 c-12 -5 -17 -17 -15 -40 1 -19 2 -34 3 -34 1 0 3 -22 5
-50 3 -52 15 -253 19 -317 1 -21 1 -38 0 -38 -7 0 -129 86 -132 93 -2 4 -8 7
-12 7 -8 0 -129 78 -199 128 -31 22 -61 34 -61 23 0 -4 -27 -54 -59 -111 l-60
-103 210 -103 c115 -57 209 -106 209 -108 0 -3 -62 -35 -137 -71 -76 -36 -145
-70 -153 -75 -8 -5 -41 -21 -72 -36 l-57 -26 31 -57 c17 -31 42 -73 55 -93 12
-21 23 -42 23 -47 0 -5 6 -13 13 -19 9 -7 57 20 182 104 94 64 182 122 197
130 27 14 27 14 23 -18 -4 -31 -7 -88 -20 -321 -3 -48 -6 -91 -6 -95 -5 -31 2
-33 129 -30 l127 3 -1 45 c-1 25 -5 86 -8 135 -3 50 -8 124 -11 165 -3 41 -7
87 -9 102 -4 27 -4 27 22 14 15 -8 85 -53 156 -100 70 -47 130 -86 133 -86 2
0 19 -11 36 -24 18 -12 37 -26 43 -29 11 -6 46 46 118 175 l26 46 -28 11 c-15
5 -38 17 -52 25 -14 8 -96 49 -182 90 -137 66 -183 96 -149 96 21 0 401 193
401 204 0 6 -10 27 -22 46 -29 49 -59 100 -75 133 -8 15 -21 27 -29 27 -8 0
-61 -30 -117 -67 -57 -38 -111 -72 -119 -78 -9 -5 -48 -31 -87 -57 -78 -52
-83 -54 -76 -35 3 6 7 57 9 112 3 55 6 100 6 100 1 0 3 23 5 50 1 28 6 85 9
128 l7 77 -28 1 c-104 4 -207 3 -221 -2z"/>
<path d="M4679 10289 c-4 -9 -6 -18 -4 -21 2 -2 6 -46 9 -98 7 -119 17 -289
20 -315 1 -11 1 -23 -2 -28 -2 -4 -42 19 -90 52 -48 32 -135 91 -194 130
l-108 71 -23 -37 c-13 -21 -36 -60 -50 -86 -15 -26 -34 -59 -43 -73 -9 -13
-15 -26 -13 -27 2 -2 97 -49 212 -105 114 -56 207 -104 207 -106 0 -4 -226
-118 -240 -121 -14 -4 -153 -75 -165 -85 -11 -9 -9 -20 17 -63 17 -29 42 -72
56 -97 42 -76 45 -77 107 -27 20 16 278 187 282 187 3 0 11 7 19 15 16 15 39
21 31 8 -4 -8 -13 -137 -23 -333 -2 -47 -6 -95 -8 -107 -3 -13 1 -26 9 -30 7
-5 68 -7 134 -5 l120 3 -5 62 c-3 34 -7 85 -9 112 -4 61 -16 241 -18 272 -1
12 2 23 6 24 4 0 85 -50 180 -112 95 -62 181 -118 193 -126 20 -13 24 -9 83
93 33 58 61 110 61 115 0 9 -340 179 -359 179 -6 0 -11 4 -11 8 0 5 -12 12
-27 18 -24 8 -8 18 190 116 l216 107 -54 90 c-30 49 -55 92 -55 96 0 3 -6 12
-13 20 -13 13 -33 7 -62 -17 -5 -5 -32 -23 -60 -40 -27 -18 -103 -67 -167
-109 -64 -43 -119 -75 -122 -72 -3 3 -3 22 0 42 2 20 6 68 9 106 3 39 7 106
10 150 4 44 7 102 8 129 l2 49 -123 1 c-105 1 -125 -2 -133 -15z"/>
<path d="M6409 10302 c-11 -2 -14 -15 -12 -50 6 -100 11 -192 18 -310 l6 -122
-43 28 c-96 62 -313 207 -318 213 -23 26 -38 12 -99 -93 -34 -61 -61 -111 -59
-112 2 -1 96 -48 211 -105 114 -56 207 -104 207 -106 0 -1 -37 -21 -82 -43
-310 -149 -337 -164 -330 -180 6 -16 111 -203 117 -210 2 -2 26 13 54 32 28
20 55 36 60 36 5 0 11 4 13 8 4 10 246 172 262 175 6 1 10 -3 9 -9 -2 -12 -12
-168 -19 -284 -2 -47 -5 -106 -7 -132 l-2 -48 132 0 132 0 -4 43 c-4 41 -12
139 -20 267 -3 36 -7 89 -9 118 -2 28 -3 52 0 52 2 0 92 -59 200 -130 l197
-131 17 28 c69 115 110 187 110 194 0 7 -356 188 -382 195 -5 1 -12 2 -18 3
-36 4 15 38 183 120 106 52 194 94 197 94 3 -1 11 5 18 13 7 8 8 14 2 14 -5 0
-10 5 -10 10 0 6 -16 36 -35 66 -19 30 -35 57 -35 60 0 3 -10 20 -23 39 l-23
34 -70 -44 c-38 -24 -76 -49 -84 -55 -34 -23 -179 -118 -213 -139 l-37 -22 6
58 c2 32 7 92 10 133 9 155 14 216 19 253 4 26 1 37 -7 38 -48 2 -227 3 -239
1z"/>
<path d="M8133 10302 c-21 -3 -22 -7 -18 -65 6 -75 12 -178 20 -315 5 -84 4
-102 -7 -96 -7 5 -96 64 -197 132 l-185 123 -23 -38 c-13 -21 -29 -50 -36 -65
-6 -16 -15 -28 -19 -28 -5 0 -8 -5 -8 -11 0 -6 -9 -24 -21 -40 -11 -16 -17
-33 -14 -39 4 -6 99 -56 213 -112 l207 -102 -68 -32 c-37 -18 -74 -37 -82 -44
-8 -6 -20 -13 -27 -14 -18 -3 -248 -117 -248 -122 0 -6 32 -63 79 -142 17 -29
31 -57 31 -62 0 -25 38 -7 169 81 81 54 151 102 156 106 6 5 27 19 48 32 l37
23 -5 -94 c-3 -51 -8 -136 -11 -188 -3 -52 -7 -118 -8 -147 l-3 -52 108 -3
c112 -3 155 2 152 18 -1 5 -4 56 -8 114 -9 147 -12 187 -20 275 -5 63 -4 76 7
69 7 -4 98 -63 202 -131 103 -68 189 -123 190 -121 1 2 19 31 39 65 20 33 37
66 37 72 0 6 5 11 10 11 6 0 10 6 10 14 0 8 4 16 9 18 4 2 11 13 15 25 6 19
-10 29 -189 117 -108 53 -200 96 -205 96 -41 0 11 33 190 121 116 57 210 107
210 110 0 8 -104 184 -120 204 -10 12 -18 10 -53 -13 -23 -15 -46 -31 -52 -35
-10 -8 -268 -176 -293 -191 -11 -6 -12 6 -7 66 3 40 8 100 10 133 4 52 16 241
17 255 1 22 -12 25 -110 25 -59 0 -117 -1 -129 -3z"/>
<path d="M2979 8318 c-20 -7 -24 -14 -21 -45 8 -102 20 -295 26 -390 1 -24 1
-43 -1 -43 -8 0 -88 54 -91 61 -2 5 -8 9 -14 9 -6 0 -32 16 -58 35 -26 19 -52
35 -58 35 -6 0 -12 4 -14 8 -1 5 -38 32 -80 60 -77 51 -78 51 -90 29 -7 -12
-17 -30 -23 -39 -5 -9 -29 -49 -52 -90 l-42 -73 209 -104 c116 -57 207 -107
204 -112 -4 -7 -82 -47 -104 -54 -13 -4 -298 -146 -303 -151 -3 -4 5 -24 19
-45 13 -21 24 -42 24 -46 0 -3 6 -14 14 -22 7 -9 24 -36 37 -61 13 -25 24 -46
25 -48 3 -4 43 17 58 30 27 22 158 108 166 108 5 0 10 3 12 8 5 10 97 72 108
72 6 0 10 4 10 8 0 5 10 13 23 19 25 12 24 16 13 -157 -3 -41 -8 -122 -11
-178 -3 -57 -7 -108 -10 -112 -11 -18 33 -25 145 -25 l115 1 -2 55 c-1 62 -11
224 -13 224 -2 0 -6 55 -10 143 -2 28 0 55 3 59 4 3 7 1 7 -5 0 -7 5 -12 10
-12 6 0 92 -54 191 -120 145 -97 184 -119 195 -109 8 6 14 15 14 20 0 5 25 49
55 99 l54 90 -32 17 c-90 48 -370 183 -378 183 -35 0 20 33 204 124 l207 102
-35 58 c-19 32 -35 60 -35 61 0 2 -15 26 -33 53 l-33 50 -118 -79 c-65 -43
-120 -79 -122 -79 -3 0 -37 -22 -76 -50 -39 -27 -74 -50 -78 -50 -5 0 -6 15
-4 33 3 17 6 59 8 92 3 33 5 60 6 60 0 0 3 36 5 80 2 44 7 110 10 148 l6 67
-33 1 c-18 0 -48 1 -66 2 -19 1 -36 -1 -39 -6 -2 -4 -9 -5 -14 -1 -16 10 -64
11 -90 2z"/>
<path d="M8135 8322 c-22 -3 -22 0 -10 -207 13 -240 14 -275 7 -275 -5 0 -17
8 -28 18 -23 20 -281 192 -289 192 -3 0 -18 11 -33 25 -21 20 -29 22 -38 12
-18 -17 -127 -207 -123 -212 2 -1 98 -50 213 -108 l210 -105 -170 -83 c-93
-45 -171 -83 -174 -84 -18 -5 -66 -31 -72 -40 -7 -9 44 -108 110 -214 7 -10
33 2 113 55 57 38 106 71 109 74 4 4 134 92 168 113 12 8 12 -48 -4 -283 -10
-147 -11 -190 -5 -191 3 0 61 -1 129 -2 123 -2 126 -1 124 33 -3 51 -14 215
-17 245 -3 22 -7 77 -9 123 l-6 82 28 -17 c118 -76 219 -143 228 -151 6 -6 25
-17 41 -26 17 -8 37 -21 45 -28 8 -7 24 -19 36 -26 19 -11 25 -10 38 3 9 8 13
15 10 15 -2 0 20 41 50 92 30 51 54 95 54 98 0 5 -167 93 -180 95 -3 0 -59 27
-125 59 l-119 59 209 104 c116 58 212 107 214 109 2 2 -7 20 -19 41 -13 21
-31 54 -42 73 -31 55 -62 100 -70 100 -6 0 -203 -126 -346 -221 -24 -16 -45
-29 -47 -29 -3 0 1 88 10 200 3 36 7 105 10 154 3 49 8 92 10 96 2 3 0 12 -4
18 -8 14 -91 23 -91 10 0 -4 -6 -5 -13 -2 -17 6 -104 10 -132 6z"/>
<path d="M5407 6983 c-2 -5 -3 -17 -1 -28 2 -11 5 -70 9 -130 3 -61 7 -142 10
-179 3 -37 8 -111 10 -165 3 -53 7 -121 9 -151 11 -162 17 -300 12 -300 -3 0
-177 115 -387 255 -210 140 -385 255 -389 255 -7 0 -62 -88 -106 -165 -6 -11
-35 -60 -64 -110 -82 -141 -91 -157 -87 -161 4 -4 389 -197 397 -199 21 -6
440 -218 440 -223 -1 -4 -36 -24 -78 -44 -42 -20 -117 -56 -167 -80 -49 -24
-91 -46 -93 -50 -2 -5 -8 -8 -14 -8 -6 0 -54 -21 -107 -47 -53 -25 -98 -45
-100 -44 -2 2 -7 -1 -10 -6 -3 -4 -66 -37 -138 -73 -73 -35 -133 -66 -133 -68
0 -2 34 -62 75 -134 41 -72 75 -134 75 -139 0 -5 5 -9 10 -9 6 0 10 -4 10 -9
0 -13 80 -151 88 -151 6 0 223 141 232 150 11 12 162 110 170 110 5 0 10 4 12
8 2 4 85 63 186 130 l183 123 -6 -113 c-6 -121 -10 -196 -21 -353 -3 -55 -7
-125 -8 -155 -4 -72 -17 -287 -21 -316 -1 -14 4 -24 14 -26 13 -3 376 -2 478
1 30 1 31 2 28 44 -2 23 -6 80 -9 127 -3 47 -8 110 -11 140 -5 57 -12 152 -20
275 -3 39 -7 93 -10 120 -3 28 -8 85 -10 128 -2 43 -6 81 -8 85 -3 4 -2 15 2
25 6 16 8 16 26 2 11 -9 139 -94 285 -190 146 -95 270 -178 277 -184 7 -6 15
-11 18 -11 4 0 21 -11 39 -25 18 -14 38 -25 44 -25 7 0 12 -4 12 -9 0 -5 8
-12 19 -16 10 -3 29 -14 41 -25 13 -11 28 -20 34 -20 9 0 199 316 231 384 5
12 15 27 22 34 12 13 7 42 -7 42 -8 0 -168 77 -635 305 l-199 97 314 156 c173
86 317 157 320 157 20 6 121 58 125 65 3 4 17 11 32 15 14 3 35 12 45 19 16
12 12 22 -58 142 -42 71 -82 138 -88 149 -72 124 -92 155 -102 155 -6 0 -23
-9 -37 -20 -14 -11 -30 -20 -36 -20 -6 0 -11 -3 -11 -8 0 -4 -20 -18 -45 -32
-25 -14 -45 -28 -45 -32 0 -5 -4 -8 -9 -8 -5 0 -76 -44 -157 -98 -82 -54 -201
-131 -264 -172 -63 -41 -117 -77 -120 -80 -8 -9 -59 -40 -65 -40 -6 0 0 145
10 250 3 25 8 88 11 140 3 52 7 109 9 125 5 64 24 317 29 393 l3 52 -258 0
c-142 0 -260 -3 -262 -7z"/>
<path d="M2958 6309 c-3 -16 -2 -31 0 -34 3 -2 6 -30 8 -62 1 -32 5 -112 8
-178 4 -66 8 -135 11 -152 4 -33 4 -32 -190 97 -107 72 -198 130 -203 130 -4
0 -18 -19 -30 -42 -12 -24 -31 -56 -41 -73 -11 -16 -29 -46 -39 -66 l-20 -36
196 -99 c109 -54 201 -98 206 -98 38 -3 -13 -35 -194 -123 l-210 -102 52 -88
c28 -48 58 -101 66 -117 8 -15 17 -24 21 -19 3 5 24 20 46 33 22 13 42 26 45
29 12 14 70 51 79 51 5 0 11 3 13 8 5 11 156 112 168 112 5 0 10 4 10 9 0 5 7
11 15 15 12 4 14 -1 10 -27 -4 -30 -12 -165 -21 -345 -2 -46 -6 -87 -9 -92 -8
-13 15 -16 140 -16 l120 1 -1 45 c-1 25 -4 88 -8 140 -4 52 -9 127 -12 165 -2
39 -6 84 -8 102 -2 22 0 30 8 26 6 -4 56 -37 111 -73 159 -106 275 -180 283
-180 4 0 20 26 37 58 16 31 32 59 36 62 9 7 49 87 49 99 0 5 -24 21 -53 34
-125 57 -357 172 -357 177 0 5 146 82 160 85 3 0 62 30 132 65 l127 63 -17 31
c-9 17 -19 33 -22 36 -6 6 -33 52 -62 108 -23 45 -38 51 -62 27 -8 -8 -17 -15
-21 -15 -3 0 -21 -11 -39 -25 -18 -14 -35 -25 -38 -25 -3 0 -63 -38 -133 -85
-70 -47 -131 -85 -135 -85 -5 0 -7 10 -5 22 3 13 7 61 10 108 3 47 7 114 10
150 3 36 7 95 9 132 l5 67 -128 -1 -129 -1 -4 -28z"/>
<path d="M8116 6281 c1 -31 5 -94 8 -141 11 -173 15 -280 11 -280 -6 0 -116
71 -125 80 -10 10 -126 85 -152 99 -16 7 -28 17 -28 21 0 4 -13 13 -30 20 -16
7 -30 16 -30 21 0 5 -6 9 -14 9 -8 0 -41 -47 -75 -105 -68 -116 -68 -118 -1
-146 19 -8 108 -50 197 -94 145 -72 183 -95 154 -95 -6 0 -96 -43 -202 -95
-106 -52 -197 -96 -202 -98 -9 -3 13 -50 88 -180 18 -32 32 -46 42 -43 21 8
317 210 321 218 2 5 9 8 15 8 6 0 19 8 29 17 18 16 18 13 14 -73 -12 -226 -18
-312 -21 -351 -2 -24 -1 -44 3 -44 41 -7 252 -2 253 6 3 25 -11 218 -17 227
-3 4 0 8 6 8 7 0 8 5 3 13 -4 6 -9 26 -10 42 -1 17 -4 65 -7 107 l-4 77 131
-87 c73 -48 161 -106 196 -129 35 -24 67 -43 71 -43 7 0 112 177 125 211 4 12
-11 23 -62 46 -124 56 -308 148 -311 156 -2 4 -12 7 -23 7 -10 0 -19 3 -19 8
0 4 95 53 210 110 116 57 210 107 210 112 0 5 -12 28 -27 52 -43 66 -51 80
-73 121 -11 20 -24 37 -28 37 -6 0 -99 -58 -162 -100 -127 -86 -227 -150 -233
-150 -4 0 -5 31 -2 70 3 38 8 98 10 132 2 35 7 99 10 143 4 44 8 91 8 105 l2
25 -131 1 -131 1 3 -56z"/>
<path d="M2959 4336 c-1 -12 0 -25 1 -31 1 -5 3 -39 5 -75 2 -36 6 -110 10
-165 13 -202 13 -203 -9 -184 -33 29 -370 248 -376 244 -3 -2 -28 -41 -55 -87
-27 -46 -55 -93 -62 -105 -14 -21 -9 -24 191 -123 113 -56 208 -105 210 -109
5 -7 -82 -52 -311 -162 -51 -24 -93 -49 -93 -55 0 -7 26 -58 58 -113 39 -69
62 -100 72 -98 9 2 94 57 189 121 95 65 179 120 186 123 10 3 13 -2 10 -19 -4
-23 -15 -211 -20 -345 -2 -39 -6 -76 -9 -81 -12 -20 21 -29 102 -28 45 1 82
-3 82 -7 0 -5 6 -5 12 -1 7 5 24 8 38 8 28 1 29 8 16 181 -3 50 -8 123 -11
163 -3 39 -7 86 -9 103 -4 38 -2 37 113 -41 50 -33 93 -60 96 -60 4 0 13 -6
20 -12 34 -31 43 -36 49 -31 3 4 6 1 6 -5 0 -7 7 -12 15 -12 8 0 15 -3 15 -8
0 -9 88 -58 93 -52 2 3 23 39 46 80 24 41 52 89 62 106 l19 32 -167 83 c-93
45 -174 84 -181 85 -8 1 -21 9 -30 18 -10 8 -21 15 -27 15 -5 0 -11 3 -12 8
-3 8 356 188 370 185 4 -1 7 2 7 7 0 5 10 11 21 14 l22 6 -22 33 c-12 18 -27
44 -34 58 -6 14 -14 27 -18 30 -3 3 -16 24 -28 47 -11 23 -25 44 -30 48 -10 6
-107 -53 -145 -87 -11 -10 -23 -18 -28 -18 -4 0 -30 -16 -57 -35 -26 -19 -53
-35 -59 -35 -6 0 -12 -3 -14 -7 -5 -12 -92 -67 -97 -62 -3 2 -3 24 -1 49 1 25
4 68 5 95 2 28 4 50 5 50 2 0 12 172 14 230 l1 49 -127 1 c-122 1 -128 0 -129
-19z"/>
<path d="M8115 4350 c-1 -3 -1 -25 1 -50 1 -25 5 -90 8 -145 4 -55 9 -142 12
-193 l6 -93 -197 131 c-108 73 -198 130 -199 128 -19 -23 -74 -118 -68 -118 4
0 2 -4 -3 -8 -20 -13 -56 -85 -48 -93 4 -4 100 -53 213 -109 l205 -102 -183
-89 c-101 -49 -188 -89 -193 -89 -5 0 -9 -4 -9 -10 0 -5 -6 -10 -14 -10 -26 0
-28 -20 -4 -58 43 -69 59 -97 71 -124 6 -16 15 -28 20 -28 4 0 5 -4 2 -10 -9
-14 31 -12 47 3 23 21 167 117 177 117 5 0 11 4 13 8 4 12 125 92 137 92 6 0
11 5 11 10 0 6 5 10 11 10 10 0 9 -31 -7 -280 -4 -52 -7 -117 -8 -145 l-1 -50
45 0 c25 -1 51 -4 58 -8 6 -5 12 -5 12 0 0 10 102 9 117 0 24 -15 30 33 18
153 -2 19 -6 73 -9 120 -4 47 -9 113 -12 148 -3 34 -3 62 0 62 9 0 151 -93
154 -102 2 -4 7 -8 12 -8 5 0 57 -32 115 -71 106 -70 129 -76 142 -42 4 10 25
50 48 88 62 103 62 106 12 129 -23 10 -44 20 -47 21 -3 1 -79 37 -169 81
l-165 81 30 14 c16 9 38 20 49 27 11 6 90 45 175 87 85 42 159 80 163 84 6 6
-97 195 -119 220 -2 2 -43 -23 -91 -55 -48 -31 -139 -91 -201 -131 l-113 -73
7 82 c3 46 7 103 9 128 2 25 6 88 10 140 8 113 8 101 6 120 -1 13 -21 15 -127
15 -69 0 -127 -2 -129 -5z"/>
<path d="M2964 2367 c-8 -5 -12 -12 -9 -17 3 -5 7 -44 9 -87 13 -238 18 -326
21 -341 1 -9 1 -20 -2 -24 -2 -4 -86 48 -186 116 -101 67 -188 126 -194 129
-11 7 -35 -28 -109 -161 l-32 -55 179 -89 c98 -48 182 -88 186 -88 5 0 19 -9
32 -19 l23 -18 -155 -76 c-86 -43 -161 -77 -167 -77 -5 0 -10 -3 -10 -7 0 -5
-20 -16 -45 -27 l-46 -18 24 -42 c13 -22 43 -74 66 -113 l42 -73 194 130 c107
72 196 130 198 130 3 0 3 -10 2 -23 -3 -22 -10 -145 -20 -335 -3 -52 -7 -99
-8 -105 -1 -9 36 -13 131 -15 l132 -3 -5 73 c-7 87 -14 187 -20 283 -3 39 -7
82 -9 98 -2 15 -2 27 1 27 9 0 328 -213 335 -224 4 -6 8 -7 8 -3 0 5 13 -1 29
-12 l29 -21 62 106 c34 58 59 112 56 120 -3 8 -18 20 -33 26 -120 51 -384 187
-374 192 6 4 11 4 11 -1 0 -4 4 -3 8 2 4 6 77 44 162 85 85 41 158 79 161 83
3 5 9 8 13 8 3 -1 19 5 35 14 l30 15 -27 46 c-65 111 -78 132 -92 153 -15 21
-18 19 -207 -105 -106 -69 -195 -124 -199 -122 -4 2 -6 23 -4 48 1 25 3 60 4
78 0 17 3 32 6 32 3 0 5 33 6 73 1 39 3 110 5 157 l4 84 -118 1 c-65 0 -125
-4 -133 -8z"/>
<path d="M4681 2360 c-4 -8 -5 -26 -4 -40 4 -42 11 -139 18 -275 4 -71 7 -132
7 -135 0 -3 0 -8 -1 -13 0 -4 -89 51 -196 123 l-195 131 -23 -38 c-86 -145
-104 -179 -101 -184 2 -4 96 -52 209 -108 113 -56 205 -103 205 -106 0 -5
-229 -115 -241 -115 -5 0 -9 -4 -9 -10 0 -5 -5 -10 -10 -10 -16 0 -144 -63
-152 -75 -4 -5 -1 -19 8 -30 8 -11 20 -31 27 -45 23 -45 79 -140 86 -144 3 -2
45 22 91 55 47 33 92 62 100 66 8 4 17 9 20 12 3 3 12 11 21 16 48 30 105 69
109 75 5 7 35 19 47 20 7 0 6 -44 -2 -140 -2 -25 -7 -103 -10 -175 -4 -71 -7
-134 -8 -140 -1 -6 45 -11 130 -13 l133 -3 -5 58 c-12 154 -16 204 -21 275 -2
42 -6 90 -8 107 -2 17 -1 32 1 35 4 4 63 -30 98 -57 6 -4 75 -50 154 -102 131
-86 145 -93 157 -77 24 34 114 195 114 204 0 4 -95 54 -211 111 l-211 102 217
108 c200 99 216 109 203 125 -8 9 -18 24 -22 32 -4 8 -12 24 -19 35 -7 11 -27
46 -45 78 l-34 58 -36 -23 c-21 -12 -65 -42 -100 -65 -34 -24 -64 -43 -67 -43
-2 0 -32 -19 -67 -43 -35 -24 -79 -53 -99 -65 l-37 -22 4 42 c2 24 6 68 8 98
3 30 8 96 10 145 3 50 8 115 11 145 l5 55 -126 0 c-102 0 -127 -3 -133 -15z"/>
<path d="M6407 2370 c-13 -5 -14 -29 -3 -175 3 -44 8 -131 12 -193 l6 -113
-196 130 -196 131 -24 -37 c-13 -21 -42 -69 -64 -108 -41 -68 -41 -70 -22 -87
11 -10 23 -18 27 -18 21 0 373 -182 368 -191 -4 -5 -10 -9 -15 -9 -4 0 -96
-43 -204 -96 -159 -78 -194 -98 -188 -112 3 -9 25 -50 49 -90 24 -40 43 -76
43 -81 0 -4 9 -16 20 -26 11 -10 20 -13 20 -7 0 7 5 12 11 12 5 0 85 51 177
113 92 63 173 117 180 121 13 8 12 -54 -4 -309 -2 -38 -6 -90 -7 -115 l-2 -45
130 0 130 0 -1 30 c-2 29 -8 113 -19 265 -11 139 -12 165 -9 172 4 7 88 -44
134 -81 14 -12 30 -21 36 -21 6 0 19 -9 29 -20 10 -11 22 -20 27 -20 8 0 93
-55 108 -70 3 -3 19 -13 35 -22 35 -19 29 -24 77 62 14 25 39 68 55 95 l30 50
-216 106 -215 105 150 73 c153 74 266 131 273 138 5 3 -15 44 -40 83 -34 52
-53 85 -54 90 0 3 -7 15 -16 27 l-16 23 -94 -62 c-142 -92 -283 -183 -296
-191 -12 -8 -12 -4 2 178 2 28 6 91 10 140 3 50 8 105 10 123 3 21 1 32 -8 33
-47 4 -230 3 -240 -1z"/>
<path d="M8120 2365 c-5 -6 -7 -32 -4 -60 2 -27 6 -92 9 -144 3 -53 8 -136 10
-185 l6 -89 -23 17 c-13 9 -30 19 -38 23 -8 4 -17 9 -20 12 -11 13 -101 71
-109 71 -5 0 -11 4 -13 8 -1 4 -45 36 -97 70 l-93 63 -32 -53 c-18 -29 -47
-77 -64 -106 -18 -30 -30 -58 -27 -63 3 -4 99 -54 212 -111 l207 -102 -209
-103 c-114 -56 -210 -105 -212 -107 -3 -3 5 -22 18 -43 13 -21 24 -40 24 -43
0 -3 8 -16 16 -30 9 -14 27 -44 41 -67 l24 -42 188 125 c104 69 193 126 200
127 6 1 9 -5 8 -13 -2 -8 -6 -51 -8 -95 -2 -44 -6 -116 -9 -160 -3 -44 -7
-108 -9 -143 l-4 -62 135 0 c74 0 132 3 130 8 -3 4 -8 52 -11 107 -7 113 -13
198 -21 299 l-6 68 38 -23 c21 -13 59 -38 85 -56 26 -18 52 -33 56 -33 5 0 17
-9 27 -20 10 -11 22 -20 26 -20 4 0 36 -20 71 -44 102 -71 103 -71 122 -33 10
17 27 49 39 69 48 81 68 121 63 125 -3 3 -98 51 -213 107 l-208 103 170 83
c94 47 173 83 178 82 4 -1 7 2 7 8 0 5 6 10 14 10 8 0 24 8 36 18 l21 17 -55
95 c-31 52 -62 100 -69 107 -9 9 -35 -4 -115 -58 -56 -38 -106 -69 -111 -69
-5 0 -11 -4 -13 -8 -2 -7 -88 -65 -156 -106 -11 -7 -12 6 -7 65 3 41 8 103 10
139 10 152 16 226 20 248 2 12 1 22 -3 23 -42 7 -246 2 -252 -6z"/>
</g>
</svg>
